G04 EAGLE Gerber RS-274X export*
G75*
%MOMM*%
%FSLAX34Y34*%
%LPD*%
%INBottom Copper*%
%IPPOS*%
%AMOC8*
5,1,8,0,0,1.08239X$1,22.5*%
G01*
%ADD10C,5.842000*%
%ADD11P,1.732040X8X22.500000*%
%ADD12P,1.732040X8X112.500000*%
%ADD13P,1.732040X8X202.500000*%
%ADD14P,1.732040X8X292.500000*%
%ADD15P,1.649562X8X22.500000*%
%ADD16C,1.524000*%
%ADD17P,1.429621X8X112.500000*%
%ADD18P,1.429621X8X202.500000*%
%ADD19C,1.117600*%
%ADD20C,0.756400*%
%ADD21C,0.762000*%
%ADD22C,0.254000*%
%ADD23C,0.508000*%
%ADD24C,0.381000*%


D10*
X38100Y50800D03*
X142240Y50800D03*
D11*
X266700Y139700D03*
X292100Y139700D03*
D12*
X489280Y205740D03*
X489280Y231140D03*
D13*
X353220Y274480D03*
X327820Y274480D03*
D11*
X690080Y127800D03*
X715480Y127800D03*
D14*
X740080Y299720D03*
X740080Y274320D03*
D10*
X558800Y50800D03*
X457200Y50800D03*
X924700Y50800D03*
X254000Y50800D03*
X355600Y50800D03*
X924700Y152400D03*
X924700Y355600D03*
X924700Y254000D03*
D15*
X383540Y624840D03*
X383540Y650240D03*
X408940Y624840D03*
X408940Y650240D03*
X434340Y624840D03*
X434340Y650240D03*
D16*
X716420Y729920D02*
X716420Y745160D01*
X691020Y745160D02*
X691020Y729920D01*
X665620Y729920D02*
X665620Y745160D01*
X640220Y745160D02*
X640220Y729920D01*
X614820Y729920D02*
X614820Y745160D01*
D17*
X88900Y596900D03*
X88900Y673100D03*
X38100Y596900D03*
X38100Y673100D03*
D16*
X668388Y401066D02*
X683628Y401066D01*
X683628Y355854D02*
X668388Y355854D01*
X733412Y401066D02*
X748652Y401066D01*
X748652Y355854D02*
X733412Y355854D01*
D15*
X199860Y705320D03*
X199860Y730720D03*
X225260Y705320D03*
X225260Y730720D03*
X250660Y705320D03*
X250660Y730720D03*
X276060Y705320D03*
X276060Y730720D03*
X301460Y705320D03*
X301460Y730720D03*
X326860Y705320D03*
X326860Y730720D03*
D18*
X281940Y269240D03*
X205740Y269240D03*
X934720Y426720D03*
X858520Y426720D03*
X934720Y462280D03*
X858520Y462280D03*
D19*
X257048Y406400D02*
X245872Y406400D01*
X245872Y355600D02*
X257048Y355600D01*
D20*
X63500Y330200D03*
X177800Y116840D03*
D21*
X177800Y182880D01*
X203200Y208280D01*
D20*
X203200Y208280D03*
X66040Y436880D03*
D21*
X66040Y332740D01*
D22*
X63500Y330200D01*
D23*
X489280Y205740D02*
X512140Y182880D01*
X624840Y182880D01*
D20*
X624840Y182880D03*
D21*
X63500Y256540D02*
X63500Y330200D01*
X63500Y256540D02*
X81280Y238760D01*
X203200Y238760D01*
X203200Y208280D01*
D20*
X226060Y314960D03*
X815340Y523240D03*
D22*
X812800Y520700D01*
D24*
X774700Y520700D01*
X716280Y520700D01*
D20*
X774700Y520700D03*
D24*
X716280Y737400D02*
X716420Y737540D01*
X716280Y737400D02*
X716280Y520700D01*
X226060Y261620D02*
X203200Y238760D01*
X226060Y261620D02*
X226060Y314960D01*
D20*
X304800Y444500D03*
X424180Y673100D03*
D24*
X406400Y673100D01*
X383540Y650240D01*
D20*
X492760Y304800D03*
D22*
X492760Y373380D01*
D20*
X492760Y373380D03*
X645160Y482600D03*
D22*
X581660Y482600D01*
X579120Y485140D01*
X579120Y502920D01*
D20*
X579120Y502920D03*
X500380Y294640D03*
D22*
X566420Y360680D01*
X635000Y360680D01*
D20*
X635000Y360680D03*
X408940Y548640D03*
X467360Y391160D03*
D22*
X456156Y515804D02*
X452304Y519656D01*
X455704Y411664D02*
X455704Y406216D01*
X467360Y394560D02*
X467360Y391160D01*
X467360Y394560D02*
X455704Y406216D01*
X409984Y547596D02*
X408940Y548640D01*
X409984Y547596D02*
X409984Y525596D01*
X456156Y412116D02*
X455704Y411664D01*
X456156Y412116D02*
X456156Y515804D01*
X415924Y519656D02*
X409984Y525596D01*
X415924Y519656D02*
X452304Y519656D01*
D20*
X408940Y284480D03*
D22*
X408940Y327660D01*
X444500Y363220D01*
D20*
X444500Y363220D03*
X452120Y345440D03*
D22*
X482600Y314960D01*
X485140Y314960D01*
D20*
X485140Y314960D03*
X406400Y406400D03*
D22*
X414020Y398780D01*
D20*
X477520Y358140D03*
D22*
X443243Y392417D01*
X430120Y392417D02*
X423757Y398780D01*
X430120Y392417D02*
X443243Y392417D01*
X423757Y398780D02*
X414020Y398780D01*
D20*
X440876Y487680D03*
D22*
X438788Y489768D01*
X421465Y489768D01*
X391160Y520073D01*
D20*
X337820Y612140D03*
D22*
X391160Y558800D01*
X391160Y520073D01*
D20*
X435876Y496344D03*
X355600Y612140D03*
D22*
X420636Y496344D02*
X435876Y496344D01*
X420636Y496344D02*
X397084Y519896D01*
X397084Y570656D01*
X355600Y612140D01*
D20*
X279400Y106680D03*
D23*
X284480Y101600D01*
X553720Y101600D02*
X751840Y101600D01*
X553720Y101600D02*
X284480Y101600D01*
X751840Y101600D02*
X751840Y152400D01*
D20*
X751840Y152400D03*
X553720Y101600D03*
X739140Y231140D03*
D24*
X751840Y218440D01*
X751840Y152400D01*
D20*
X665480Y259080D03*
D22*
X680720Y274320D01*
X740080Y274320D01*
D20*
X335280Y157480D03*
D22*
X713630Y157480D01*
X728754Y172604D01*
D20*
X728754Y172604D03*
D23*
X353220Y175420D02*
X353220Y274480D01*
X353220Y175420D02*
X335280Y157480D01*
D20*
X459740Y218440D03*
D22*
X462280Y220980D02*
X632460Y220980D01*
X462280Y220980D02*
X459740Y218440D01*
D20*
X632460Y220980D03*
X421640Y259080D03*
D22*
X477520Y259080D01*
X497840Y238760D01*
X627380Y238760D02*
X632460Y233680D01*
D20*
X632460Y233680D03*
D22*
X627380Y238760D02*
X497840Y238760D01*
D20*
X462280Y408940D03*
D22*
X462280Y546100D02*
X383540Y624840D01*
X462280Y546100D02*
X462280Y408940D01*
D20*
X287020Y660400D03*
D22*
X322580Y624840D01*
X383540Y624840D01*
D20*
X416560Y528320D03*
D22*
X419100Y530860D01*
X449580Y530860D01*
D20*
X449580Y530860D03*
X739140Y683260D03*
D22*
X774700Y683260D01*
D20*
X774700Y683260D03*
X419100Y508000D03*
D22*
X424180Y513080D01*
X449580Y513080D01*
D20*
X449580Y513080D03*
X739140Y619760D03*
D22*
X787400Y668020D01*
X787400Y701040D01*
D20*
X787400Y701040D03*
X624840Y502920D03*
D22*
X665620Y543700D01*
X665620Y737540D01*
D20*
X609600Y502920D03*
D22*
X640220Y533540D01*
X640220Y737540D01*
D20*
X594360Y502920D03*
D22*
X594360Y530860D01*
X614820Y551320D01*
X614820Y737540D01*
D20*
X472440Y414020D03*
D22*
X472440Y561340D02*
X408940Y624840D01*
X472440Y561340D02*
X472440Y414020D01*
D20*
X325120Y612140D03*
X449580Y495300D03*
D22*
X387096Y550164D02*
X325120Y612140D01*
X387096Y550164D02*
X387096Y518389D01*
X443600Y481104D02*
X447452Y484956D01*
X424381Y481104D02*
X387096Y518389D01*
X424381Y481104D02*
X443600Y481104D01*
X447452Y484956D02*
X447452Y493172D01*
X449580Y495300D01*
D20*
X373380Y469900D03*
X340360Y469900D03*
D24*
X373380Y469900D01*
D20*
X388620Y350520D03*
D22*
X337848Y467388D02*
X340360Y469900D01*
X337848Y467388D02*
X331088Y467388D01*
X323624Y459924D01*
X323624Y415516D01*
X388620Y350520D01*
D20*
X502920Y330200D03*
D22*
X503760Y329360D01*
X503760Y313260D01*
D20*
X503760Y313260D03*
X398780Y294640D03*
D22*
X398780Y353060D01*
X426720Y381000D01*
D20*
X426720Y381000D03*
X432844Y398993D03*
X408940Y480060D03*
D22*
X432844Y403224D02*
X432844Y398993D01*
X432844Y403224D02*
X433296Y403676D01*
X433296Y455704D01*
X408940Y480060D01*
D20*
X418256Y391160D03*
D22*
X417212Y392204D01*
X408756Y392204D01*
X398780Y402180D01*
X398780Y467360D01*
X225260Y640880D01*
X225260Y705320D01*
X236220Y719760D02*
X225260Y730720D01*
X236220Y719760D02*
X236220Y637540D01*
X405476Y468284D01*
D20*
X426720Y406400D03*
D22*
X405476Y427644D01*
X405476Y468284D01*
D20*
X330200Y457200D03*
X303960Y535100D03*
D22*
X376104Y476476D02*
X379956Y472624D01*
X379956Y467176D01*
X376104Y463324D01*
X362584Y476476D02*
X303960Y535100D01*
X336324Y463324D02*
X330200Y457200D01*
X362584Y476476D02*
X376104Y476476D01*
X376104Y463324D02*
X336324Y463324D01*
D20*
X355600Y431800D03*
D22*
X387576Y467176D02*
X387576Y472624D01*
X355600Y435200D02*
X355600Y431800D01*
X355600Y435200D02*
X387576Y467176D01*
X387576Y472624D02*
X199860Y660340D01*
X199860Y705320D01*
D20*
X546100Y429260D03*
D22*
X546100Y594360D01*
X457200Y683260D02*
X261620Y683260D01*
X250660Y694220D01*
X250660Y705320D01*
X457200Y683260D02*
X546100Y594360D01*
M02*
