G04 EAGLE Gerber RS-274X export*
G75*
%MOMM*%
%FSLAX34Y34*%
%LPD*%
%INSolderpaste Top*%
%IPPOS*%
%AMOC8*
5,1,8,0,0,1.08239X$1,22.5*%
G01*
%ADD10C,0.990000*%
%ADD11R,1.400000X0.450000*%
%ADD12R,3.100000X5.180000*%
%ADD13C,0.500000*%
%ADD14C,0.718719*%
%ADD15R,2.400000X2.400000*%
%ADD16R,0.800000X0.300000*%
%ADD17R,0.300000X0.800000*%
%ADD18R,3.700000X3.700000*%
%ADD19R,1.200000X1.200000*%
%ADD20R,0.450000X1.400000*%
%ADD21R,5.180000X3.100000*%
%ADD22R,3.000000X1.400000*%
%ADD23R,1.400000X3.000000*%
%ADD24R,2.000000X0.700000*%
%ADD25R,1.300000X1.600000*%
%ADD26R,1.600000X1.300000*%
%ADD27R,0.889000X1.016000*%

G36*
X150624Y448820D02*
X150624Y448820D01*
X150626Y448819D01*
X150669Y448839D01*
X150713Y448857D01*
X150713Y448859D01*
X150715Y448860D01*
X150748Y448945D01*
X150748Y459105D01*
X150747Y459107D01*
X150748Y459109D01*
X150728Y459152D01*
X150710Y459196D01*
X150708Y459196D01*
X150707Y459198D01*
X150622Y459231D01*
X118618Y459231D01*
X118616Y459230D01*
X118614Y459231D01*
X118571Y459211D01*
X118527Y459193D01*
X118527Y459191D01*
X118525Y459190D01*
X118492Y459105D01*
X118492Y448945D01*
X118493Y448943D01*
X118492Y448941D01*
X118512Y448898D01*
X118530Y448854D01*
X118532Y448854D01*
X118533Y448852D01*
X118618Y448819D01*
X150622Y448819D01*
X150624Y448820D01*
G37*
D10*
X839230Y703530D02*
X834130Y703530D01*
X834130Y703630D01*
X839230Y703630D01*
X839230Y703530D01*
X839230Y688530D02*
X834130Y688530D01*
X834130Y688630D01*
X839230Y688630D01*
X839230Y688530D01*
X839230Y673530D02*
X834130Y673530D01*
X834130Y673630D01*
X839230Y673630D01*
X839230Y673530D01*
X839230Y658530D02*
X834130Y658530D01*
X834130Y658630D01*
X839230Y658630D01*
X839230Y658530D01*
X839230Y643530D02*
X834130Y643530D01*
X834130Y643630D01*
X839230Y643630D01*
X839230Y643530D01*
X839230Y628530D02*
X834130Y628530D01*
X834130Y628630D01*
X839230Y628630D01*
X839230Y628530D01*
X839230Y613530D02*
X834130Y613530D01*
X834130Y613630D01*
X839230Y613630D01*
X839230Y613530D01*
X839230Y598530D02*
X834130Y598530D01*
X834130Y598630D01*
X839230Y598630D01*
X839230Y598530D01*
X839230Y583530D02*
X834130Y583530D01*
X834130Y583630D01*
X839230Y583630D01*
X839230Y583530D01*
X839230Y568530D02*
X834130Y568530D01*
X834130Y568630D01*
X839230Y568630D01*
X839230Y568530D01*
X839230Y553530D02*
X834130Y553530D01*
X834130Y553630D01*
X839230Y553630D01*
X839230Y553530D01*
X839230Y538530D02*
X834130Y538530D01*
X834130Y538630D01*
X839230Y538630D01*
X839230Y538530D01*
X839230Y523530D02*
X834130Y523530D01*
X834130Y523630D01*
X839230Y523630D01*
X839230Y523530D01*
X852130Y505430D02*
X852130Y500330D01*
X852030Y500330D01*
X852030Y505430D01*
X852130Y505430D01*
X867130Y505430D02*
X867130Y500330D01*
X867030Y500330D01*
X867030Y505430D01*
X867130Y505430D01*
X882130Y505430D02*
X882130Y500330D01*
X882030Y500330D01*
X882030Y505430D01*
X882130Y505430D01*
X897130Y505430D02*
X897130Y500330D01*
X897030Y500330D01*
X897030Y505430D01*
X897130Y505430D01*
X912130Y505430D02*
X912130Y500330D01*
X912030Y500330D01*
X912030Y505430D01*
X912130Y505430D01*
X927130Y505430D02*
X927130Y500330D01*
X927030Y500330D01*
X927030Y505430D01*
X927130Y505430D01*
X942130Y505430D02*
X942130Y500330D01*
X942030Y500330D01*
X942030Y505430D01*
X942130Y505430D01*
X957130Y505430D02*
X957130Y500330D01*
X957030Y500330D01*
X957030Y505430D01*
X957130Y505430D01*
X969530Y523630D02*
X974630Y523630D01*
X974630Y523530D01*
X969530Y523530D01*
X969530Y523630D01*
X969530Y538630D02*
X974630Y538630D01*
X974630Y538530D01*
X969530Y538530D01*
X969530Y538630D01*
X969530Y553630D02*
X974630Y553630D01*
X974630Y553530D01*
X969530Y553530D01*
X969530Y553630D01*
X969530Y568630D02*
X974630Y568630D01*
X974630Y568530D01*
X969530Y568530D01*
X969530Y568630D01*
X969530Y583630D02*
X974630Y583630D01*
X974630Y583530D01*
X969530Y583530D01*
X969530Y583630D01*
X969530Y598630D02*
X974630Y598630D01*
X974630Y598530D01*
X969530Y598530D01*
X969530Y598630D01*
X969530Y613630D02*
X974630Y613630D01*
X974630Y613530D01*
X969530Y613530D01*
X969530Y613630D01*
X969530Y628630D02*
X974630Y628630D01*
X974630Y628530D01*
X969530Y628530D01*
X969530Y628630D01*
X969530Y643630D02*
X974630Y643630D01*
X974630Y643530D01*
X969530Y643530D01*
X969530Y643630D01*
X969530Y658630D02*
X974630Y658630D01*
X974630Y658530D01*
X969530Y658530D01*
X969530Y658630D01*
X969530Y673630D02*
X974630Y673630D01*
X974630Y673530D01*
X969530Y673530D01*
X969530Y673630D01*
X969530Y688630D02*
X974630Y688630D01*
X974630Y688530D01*
X969530Y688530D01*
X969530Y688630D01*
X969530Y703630D02*
X974630Y703630D01*
X974630Y703530D01*
X969530Y703530D01*
X969530Y703630D01*
D11*
X713700Y160950D03*
X713700Y167450D03*
X713700Y173950D03*
X713700Y180450D03*
X713700Y186950D03*
X713700Y193450D03*
X713700Y199950D03*
X713700Y206450D03*
X713700Y212950D03*
X713700Y219450D03*
X713700Y225950D03*
X713700Y232450D03*
X713700Y238950D03*
X713700Y245450D03*
X654700Y245450D03*
X654700Y238950D03*
X654700Y232450D03*
X654700Y225950D03*
X654700Y219450D03*
X654700Y212950D03*
X654700Y206450D03*
X654700Y199950D03*
X654700Y193450D03*
X654700Y186950D03*
X654700Y180450D03*
X654700Y173950D03*
X654700Y167450D03*
X654700Y160950D03*
D12*
X684200Y203200D03*
D13*
X684200Y203200D03*
D14*
X471807Y629549D02*
X467993Y629549D01*
X471807Y629549D02*
X471807Y627751D01*
X467993Y627751D01*
X467993Y629549D01*
X467993Y647329D02*
X471807Y647329D01*
X471807Y645531D01*
X467993Y645531D01*
X467993Y647329D01*
X40007Y385709D02*
X36193Y385709D01*
X40007Y385709D02*
X40007Y383911D01*
X36193Y383911D01*
X36193Y385709D01*
X36193Y403489D02*
X40007Y403489D01*
X40007Y401691D01*
X36193Y401691D01*
X36193Y403489D01*
X564513Y439049D02*
X568327Y439049D01*
X568327Y437251D01*
X564513Y437251D01*
X564513Y439049D01*
X564513Y456829D02*
X568327Y456829D01*
X568327Y455031D01*
X564513Y455031D01*
X564513Y456829D01*
X173091Y493393D02*
X173091Y497207D01*
X174889Y497207D01*
X174889Y493393D01*
X173091Y493393D01*
X155311Y493393D02*
X155311Y497207D01*
X157109Y497207D01*
X157109Y493393D01*
X155311Y493393D01*
X173091Y531493D02*
X173091Y535307D01*
X174889Y535307D01*
X174889Y531493D01*
X173091Y531493D01*
X155311Y531493D02*
X155311Y535307D01*
X157109Y535307D01*
X157109Y531493D01*
X155311Y531493D01*
X173091Y569593D02*
X173091Y573407D01*
X174889Y573407D01*
X174889Y569593D01*
X173091Y569593D01*
X155311Y569593D02*
X155311Y573407D01*
X157109Y573407D01*
X157109Y569593D01*
X155311Y569593D01*
D15*
X38100Y187100D03*
X38100Y143100D03*
D16*
X406800Y462000D03*
X406800Y457000D03*
X406800Y452000D03*
X406800Y447000D03*
X406800Y442000D03*
X406800Y437000D03*
X406800Y432000D03*
X406800Y427000D03*
D17*
X414300Y419500D03*
X419300Y419500D03*
X424300Y419500D03*
X429300Y419500D03*
X434300Y419500D03*
X439300Y419500D03*
X444300Y419500D03*
X449300Y419500D03*
D16*
X456800Y427000D03*
X456800Y432000D03*
X456800Y437000D03*
X456800Y442000D03*
X456800Y447000D03*
X456800Y452000D03*
X456800Y457000D03*
X456800Y462000D03*
D17*
X449300Y469500D03*
X444300Y469500D03*
X439300Y469500D03*
X434300Y469500D03*
X429300Y469500D03*
X424300Y469500D03*
X419300Y469500D03*
X414300Y469500D03*
D18*
X431800Y444500D03*
D19*
X228600Y467020D03*
X228600Y488020D03*
X301920Y320040D03*
X322920Y320040D03*
X799760Y426720D03*
X820760Y426720D03*
D20*
X351450Y186400D03*
X357950Y186400D03*
X364450Y186400D03*
X370950Y186400D03*
X377450Y186400D03*
X383950Y186400D03*
X390450Y186400D03*
X396950Y186400D03*
X403450Y186400D03*
X409950Y186400D03*
X416450Y186400D03*
X422950Y186400D03*
X429450Y186400D03*
X435950Y186400D03*
X435950Y245400D03*
X429450Y245400D03*
X422950Y245400D03*
X416450Y245400D03*
X409950Y245400D03*
X403450Y245400D03*
X396950Y245400D03*
X390450Y245400D03*
X383950Y245400D03*
X377450Y245400D03*
X370950Y245400D03*
X364450Y245400D03*
X357950Y245400D03*
X351450Y245400D03*
D21*
X393700Y215900D03*
D13*
X393700Y215900D03*
D19*
X622300Y460080D03*
X622300Y439080D03*
D22*
X163700Y215900D03*
X115700Y215900D03*
D23*
X58420Y476380D03*
X58420Y524380D03*
D14*
X285113Y390789D02*
X285113Y388991D01*
X285113Y390789D02*
X288927Y390789D01*
X288927Y388991D01*
X285113Y388991D01*
X285113Y373009D02*
X285113Y371211D01*
X285113Y373009D02*
X288927Y373009D01*
X288927Y371211D01*
X285113Y371211D01*
X311787Y371211D02*
X311787Y373009D01*
X311787Y371211D02*
X307973Y371211D01*
X307973Y373009D01*
X311787Y373009D01*
X311787Y388991D02*
X311787Y390789D01*
X311787Y388991D02*
X307973Y388991D01*
X307973Y390789D01*
X311787Y390789D01*
D24*
X251460Y371000D03*
X251460Y381000D03*
X251460Y391000D03*
D25*
X375260Y320040D03*
X356260Y320040D03*
X278740Y487680D03*
X259740Y487680D03*
D26*
X429260Y285140D03*
X429260Y304140D03*
D25*
X598780Y406400D03*
X579780Y406400D03*
D14*
X288927Y355971D02*
X285113Y355971D01*
X285113Y357769D01*
X288927Y357769D01*
X288927Y355971D01*
X288927Y338191D02*
X285113Y338191D01*
X285113Y339989D01*
X288927Y339989D01*
X288927Y338191D01*
X288927Y406029D02*
X285113Y406029D01*
X288927Y406029D02*
X288927Y404231D01*
X285113Y404231D01*
X285113Y406029D01*
X285113Y423809D02*
X288927Y423809D01*
X288927Y422011D01*
X285113Y422011D01*
X285113Y423809D01*
D27*
X111633Y384175D03*
X134620Y384175D03*
X157607Y384175D03*
M02*
