M48
;GenerationSoftware,Autodesk,EAGLE,9.6.2*%
;CreationDate,2021-02-06T21:52:00Z*%
FMAT,2
ICI,OFF
METRIC,TZ,000.000
T6C0.350
T5C0.610
T4C0.813
T3C1.016
T2C3.000
%
G90
M71
T2
X3810Y5080
X92470Y25400
X92470Y35560
X92470Y15240
X35560Y5080
X25400Y5080
X92470Y5080
X45720Y5080
X55880Y5080
X14224Y5080
T3
X67601Y35585
X61482Y73754
X67601Y40107
X64022Y73754
X66562Y73754
X69102Y73754
X71642Y73754
X43434Y65024
X43434Y62484
X40894Y65024
X40894Y62484
X38354Y65024
X38354Y62484
X74103Y35585
X32686Y73072
X32686Y70532
X30146Y73072
X30146Y70532
X27606Y73072
X27606Y70532
X25066Y73072
X25066Y70532
X22526Y73072
X19986Y73072
X19986Y70532
X22526Y70532
X74103Y40107
T4
X26670Y13970
X29210Y13970
X48928Y20574
X48928Y23114
X35322Y27448
X32782Y27448
X69008Y12780
X71548Y12780
X74008Y29972
X74008Y27432
X85852Y46228
X93472Y46228
X85852Y42672
X93472Y42672
X20574Y26924
X28194Y26924
X3810Y67310
X3810Y59690
X8890Y67310
X8890Y59690
T5
X25146Y35560
X25146Y40640
T6
X41826Y39116
X54610Y42926
X35560Y43180
X30396Y53510
X33020Y45720
X42672Y40640
X40894Y54864
X73914Y23114
X55372Y10160
X75184Y15240
X27940Y10668
X35560Y61214
X43588Y49634
X33782Y61214
X44088Y48768
X47752Y35814
X40640Y40640
X48514Y31496
X45212Y34544
X44450Y36322
X40894Y28448
X46736Y39116
X66548Y25908
X63500Y36068
X50038Y29464
X57912Y50292
X64516Y48260
X49276Y37338
X49276Y30480
X42418Y67310
X30480Y44450
X77470Y52070
X81534Y52324
X22606Y31496
X62484Y18288
X6604Y43688
X20320Y20828
X17780Y11684
X78740Y70104
X40894Y48006
X43284Y39899
X42672Y38100
X39878Y29464
X50376Y31326
X50292Y33020
X38862Y35052
X34036Y46990
X37338Y46990
X44958Y49530
X32512Y61214
X47244Y41402
X59436Y50292
X60960Y50292
X62484Y50292
X6350Y33020
X73914Y61976
X44958Y51308
X41910Y50800
X77470Y68326
X73914Y68326
X44958Y53086
X41656Y52832
X28702Y66040
X46228Y40894
X63246Y23368
X42164Y25908
X63246Y22098
X45974Y21844
X72875Y17260
X33528Y15748
M30